<svg version="1.1" viewBox="0.0 0.0 960.0 540.0" fill="none" stroke="none" stroke-linecap="square" stroke-miterlimit="10" xmlns:xlink="http://www.w3.org/1999/xlink" xmlns="http://www.w3.org/2000/svg"><clipPath id="p.0"><path d="m0 0l960.0 0l0 540.0l-960.0 0l0 -540.0z" clip-rule="nonzero"/></clipPath><g clip-path="url(#p.0)"><path fill="#1b212c" d="m0 0l960.0 0l0 540.0l-960.0 0z" fill-rule="evenodd"/><path fill="#ffffff" fill-opacity="0.0303" d="m960.0 0.053017586l0 0l0 172.56693l-172.56696 -172.56693z" fill-rule="evenodd"/><path fill="#ffffff" fill-opacity="0.0303" d="m270.53595 539.096l-270.53543 -269.51443l0 -269.5144l541.0709 539.0289z" fill-rule="evenodd"/><path fill="#ffffff" fill-opacity="0.0303" d="m246.62866 538.00287l-246.62866 -245.72238l0 -172.35767l419.62204 418.08005z" fill-rule="evenodd"/><path fill="#0145ac" d="m120.897224 240.63107l-120.74016 -120.28981l0 -120.2898l241.48032 240.5796z" fill-rule="evenodd"/><path fill="#82c7a5" d="m310.01797 182.05634l-120.74017 -120.289795l-120.74015 0l241.48032 240.57959z" fill-rule="evenodd"/><path fill="#000000" fill-opacity="0.0" d="m371.35434 165.71129l526.7716 0l0 165.76378l-526.7716 0z" fill-rule="evenodd"/><path fill="#ffffff" d="m402.74496 226.22379q-5.53125 0 -10.046875 -2.46875q-4.5 -2.484375 -7.046875 -6.796875q-2.53125 -4.328125 -2.53125 -9.71875q0 -5.375 2.53125 -9.6875q2.546875 -4.328125 7.046875 -6.8125q4.515625 -2.484375 10.046875 -2.484375q5.546875 0 10.0 2.453125q4.453125 2.453125 7.015625 6.8125q2.5625 4.34375 2.5625 9.71875q0 5.390625 -2.5625 9.734375q-2.5625 4.34375 -7.015625 6.796875q-4.453125 2.453125 -10.0 2.453125zm0 -3.515625q4.4375 0 8.0 -2.0q3.578125 -2.0 5.59375 -5.546875q2.03125 -3.546875 2.03125 -7.921875q0 -4.359375 -2.03125 -7.90625q-2.015625 -3.546875 -5.59375 -5.546875q-3.5625 -2.0 -8.0 -2.0q-4.421875 0 -8.03125 2.0q-3.59375 2.0 -5.640625 5.546875q-2.046875 3.546875 -2.046875 7.90625q0 4.375 2.046875 7.921875q2.046875 3.546875 5.640625 5.546875q3.609375 2.0 8.03125 2.0zm42.085968 -25.0625q3.9375 0 7.140625 1.796875q3.203125 1.78125 5.015625 5.03125q1.8125 3.25 1.8125 7.40625q0 4.21875 -1.8125 7.46875q-1.8125 3.25 -4.984375 5.046875q-3.171875 1.78125 -7.171875 1.78125q-3.421875 0 -6.171875 -1.40625q-2.734375 -1.421875 -4.5 -4.140625l0 15.625l-3.78125 0l0 -38.390625l3.625 0l0 5.546875q1.703125 -2.78125 4.5 -4.265625q2.8125 -1.5 6.328125 -1.5zm-0.265625 25.171875q2.921875 0 5.328125 -1.359375q2.40625 -1.359375 3.765625 -3.859375q1.359375 -2.515625 1.359375 -5.71875q0 -3.1875 -1.359375 -5.671875q-1.359375 -2.484375 -3.765625 -3.859375q-2.40625 -1.390625 -5.328125 -1.390625q-2.984375 0 -5.359375 1.390625q-2.375 1.375 -3.734375 3.859375q-1.359375 2.484375 -1.359375 5.671875q0 3.203125 1.359375 5.71875q1.359375 2.5 3.734375 3.859375q2.375 1.359375 5.359375 1.359375zm36.734528 1.390625q-1.0625 0.953125 -2.640625 1.46875q-1.5625 0.5 -3.28125 0.5q-3.9375 0 -6.078125 -2.125q-2.125 -2.140625 -2.125 -6.03125l0 -16.953125l-5.015625 0l0 -3.203125l5.015625 0l0 -6.140625l3.78125 0l0 6.140625l8.53125 0l0 3.203125l-8.53125 0l0 16.734375q0 2.515625 1.25 3.828125q1.265625 1.296875 3.609375 1.296875q1.171875 0 2.265625 -0.375q1.09375 -0.375 1.890625 -1.0625l1.328125 2.71875zm6.885559 -26.34375l3.78125 0l0 28.046875l-3.78125 0l0 -28.046875zm1.921875 -6.140625q-1.171875 0 -1.96875 -0.796875q-0.796875 -0.796875 -0.796875 -1.921875q0 -1.0625 0.796875 -1.859375q0.796875 -0.796875 1.96875 -0.796875q1.171875 0 1.96875 0.78125q0.8125 0.765625 0.8125 1.828125q0 1.171875 -0.8125 1.96875q-0.796875 0.796875 -1.96875 0.796875zm47.407745 5.921875q5.28125 0 8.28125 3.046875q3.015625 3.03125 3.015625 8.953125l0 16.265625l-3.78125 0l0 -15.890625q0 -4.375 -2.109375 -6.65625q-2.109375 -2.296875 -5.9375 -2.296875q-4.375 0 -6.890625 2.6875q-2.5 2.6875 -2.5 7.4375l0 14.71875l-3.78125 0l0 -15.890625q0 -4.375 -2.109375 -6.65625q-2.109375 -2.296875 -6.0 -2.296875q-4.328125 0 -6.859375 2.6875q-2.53125 2.6875 -2.53125 7.4375l0 14.71875l-3.78125 0l0 -28.046875l3.625 0l0 5.109375q1.5 -2.546875 4.15625 -3.9375q2.671875 -1.390625 6.140625 -1.390625q3.515625 0 6.09375 1.5q2.59375 1.484375 3.875 4.421875q1.546875 -2.78125 4.453125 -4.34375q2.90625 -1.578125 6.640625 -1.578125zm21.59668 0.21875l3.78125 0l0 28.046875l-3.78125 0l0 -28.046875zm1.921875 -6.140625q-1.171875 0 -1.96875 -0.796875q-0.796875 -0.796875 -0.796875 -1.921875q0 -1.0625 0.796875 -1.859375q0.796875 -0.796875 1.96875 -0.796875q1.171875 0 1.96875 0.78125q0.8125 0.765625 0.8125 1.828125q0 1.171875 -0.8125 1.96875q-0.796875 0.796875 -1.96875 0.796875zm32.20459 31.046875l0 3.140625l-22.828125 0l0 -2.5l17.65625 -22.34375l-17.328125 0l0 -3.203125l22.1875 0l0 2.5l-17.65625 22.40625l17.96875 0zm7.4694214 -24.90625l3.78125 0l0 28.046875l-3.78125 0l0 -28.046875zm1.921875 -6.140625q-1.171875 0 -1.96875 -0.796875q-0.796875 -0.796875 -0.796875 -1.921875q0 -1.0625 0.796875 -1.859375q0.796875 -0.796875 1.96875 -0.796875q1.171875 0 1.96875 0.78125q0.8125 0.765625 0.8125 1.828125q0 1.171875 -0.8125 1.96875q-0.796875 0.796875 -1.96875 0.796875zm26.720215 5.921875q5.265625 0 8.390625 3.078125q3.125 3.0625 3.125 8.921875l0 16.265625l-3.796875 0l0 -15.890625q0 -4.375 -2.1875 -6.65625q-2.171875 -2.296875 -6.234375 -2.296875q-4.53125 0 -7.171875 2.6875q-2.640625 2.6875 -2.640625 7.4375l0 14.71875l-3.78125 0l0 -28.046875l3.625 0l0 5.171875q1.546875 -2.5625 4.28125 -3.96875q2.75 -1.421875 6.390625 -1.421875zm47.881653 0.21875l0 24.640625q0 7.140625 -3.5 10.578125q-3.484375 3.4375 -10.53125 3.4375q-3.890625 0 -7.390625 -1.15625q-3.484375 -1.140625 -5.671875 -3.15625l1.921875 -2.890625q2.03125 1.8125 4.9375 2.828125q2.90625 1.015625 6.109375 1.015625q5.328125 0 7.828125 -2.484375q2.515625 -2.46875 2.515625 -7.703125l0 -3.5625q-1.765625 2.65625 -4.625 4.046875q-2.84375 1.390625 -6.3125 1.390625q-3.953125 0 -7.1875 -1.734375q-3.21875 -1.734375 -5.0625 -4.84375q-1.828125 -3.125 -1.828125 -7.078125q0 -3.953125 1.828125 -7.03125q1.84375 -3.09375 5.046875 -4.796875q3.203125 -1.71875 7.203125 -1.71875q3.578125 0 6.453125 1.4375q2.875 1.4375 4.640625 4.15625l0 -5.375l3.625 0zm-14.34375 23.625q3.03125 0 5.484375 -1.3125q2.453125 -1.3125 3.8125 -3.65625q1.375 -2.34375 1.375 -5.328125q0 -2.984375 -1.375 -5.296875q-1.359375 -2.328125 -3.78125 -3.625q-2.421875 -1.3125 -5.515625 -1.3125q-3.046875 0 -5.46875 1.28125q-2.421875 1.28125 -3.78125 3.625q-1.359375 2.34375 -1.359375 5.328125q0 2.984375 1.359375 5.328125q1.359375 2.34375 3.78125 3.65625q2.421875 1.3125 5.46875 1.3125zm70.92993 -32.90625l0 37.328125l-3.890625 0l0 -17.21875l-23.359375 0l0 17.21875l-3.953125 0l0 -37.328125l3.953125 0l0 16.640625l23.359375 0l0 -16.640625l3.890625 0zm22.824463 37.59375q-4.0625 0 -7.3125 -1.828125q-3.25 -1.84375 -5.125 -5.09375q-1.859375 -3.265625 -1.859375 -7.375q0 -4.09375 1.859375 -7.34375q1.875 -3.265625 5.125 -5.078125q3.25 -1.8125 7.3125 -1.8125q4.046875 0 7.296875 1.8125q3.25 1.8125 5.09375 5.078125q1.84375 3.25 1.84375 7.34375q0 4.109375 -1.84375 7.375q-1.84375 3.25 -5.09375 5.09375q-3.25 1.828125 -7.296875 1.828125zm0 -3.359375q2.984375 0 5.359375 -1.359375q2.375 -1.359375 3.703125 -3.859375q1.328125 -2.515625 1.328125 -5.71875q0 -3.1875 -1.328125 -5.6875q-1.328125 -2.515625 -3.703125 -3.875q-2.375 -1.359375 -5.359375 -1.359375q-2.984375 0 -5.359375 1.359375q-2.375 1.359375 -3.734375 3.875q-1.359375 2.5 -1.359375 5.6875q0 3.203125 1.359375 5.71875q1.359375 2.5 3.734375 3.859375q2.375 1.359375 5.359375 1.359375zm62.339783 -24.953125l-10.609375 28.046875l-3.578125 0l-8.859375 -22.984375l-8.84375 22.984375l-3.578125 0l-10.5625 -28.046875l3.625 0l8.8125 23.828125l9.0 -23.828125l3.265625 0l8.953125 23.828125l8.90625 -23.828125l3.46875 0z" fill-rule="nonzero"/><path fill="#ffffff" d="m437.68246 252.58316l-12.578125 37.328125l-4.171875 0l-10.921875 -31.84375l-10.984375 31.84375l-4.109375 0l-12.59375 -37.328125l4.0625 0l10.765625 32.109375l11.140625 -32.109375l3.6875 0l10.984375 32.265625l10.9375 -32.265625l3.78125 0zm28.689117 24.46875l-23.46875 0q0.328125 4.375 3.359375 7.078125q3.046875 2.6875 7.6875 2.6875q2.609375 0 4.796875 -0.921875q2.1875 -0.9375 3.78125 -2.75l2.140625 2.453125q-1.875 2.234375 -4.671875 3.40625q-2.796875 1.171875 -6.15625 1.171875q-4.3125 0 -7.65625 -1.828125q-3.328125 -1.84375 -5.203125 -5.09375q-1.859375 -3.265625 -1.859375 -7.375q0 -4.09375 1.78125 -7.34375q1.796875 -3.265625 4.90625 -5.078125q3.125 -1.8125 7.015625 -1.8125q3.890625 0 6.984375 1.8125q3.09375 1.8125 4.84375 5.046875q1.765625 3.21875 1.765625 7.375l-0.046875 1.171875zm-13.546875 -12.15625q-4.046875 0 -6.796875 2.59375q-2.75 2.578125 -3.125 6.75l19.890625 0q-0.375 -4.171875 -3.125 -6.75q-2.734375 -2.59375 -6.84375 -2.59375zm61.588318 25.015625l-8.53125 -12.0q-1.4375 0.15625 -2.984375 0.15625l-10.015625 0l0 11.84375l-3.953125 0l0 -37.328125l13.96875 0q7.15625 0 11.203125 3.421875q4.046875 3.40625 4.046875 9.375q0 4.375 -2.21875 7.390625q-2.203125 3.015625 -6.3125 4.34375l9.125 12.796875l-4.328125 0zm-11.625 -15.203125q5.546875 0 8.484375 -2.453125q2.9375 -2.453125 2.9375 -6.875q0 -4.53125 -2.9375 -6.953125q-2.9375 -2.4375 -8.484375 -2.4375l-9.90625 0l0 18.71875l9.90625 0zm35.368652 15.46875q-4.0625 0 -7.3125 -1.828125q-3.25 -1.84375 -5.125 -5.09375q-1.859375 -3.265625 -1.859375 -7.375q0 -4.09375 1.859375 -7.34375q1.875 -3.265625 5.125 -5.078125q3.25 -1.8125 7.3125 -1.8125q4.046875 0 7.296875 1.8125q3.25 1.8125 5.09375 5.078125q1.84375 3.25 1.84375 7.34375q0 4.109375 -1.84375 7.375q-1.84375 3.25 -5.09375 5.09375q-3.25 1.828125 -7.296875 1.828125zm0 -3.359375q2.984375 0 5.359375 -1.359375q2.375 -1.359375 3.703125 -3.859375q1.328125 -2.515625 1.328125 -5.71875q0 -3.1875 -1.328125 -5.6875q-1.328125 -2.515625 -3.703125 -3.875q-2.375 -1.359375 -5.359375 -1.359375q-2.984375 0 -5.359375 1.359375q-2.375 1.359375 -3.734375 3.875q-1.359375 2.5 -1.359375 5.6875q0 3.203125 1.359375 5.71875q1.359375 2.5 3.734375 3.859375q2.375 1.359375 5.359375 1.359375zm21.967957 -36.46875l3.78125 0l0 39.5625l-3.78125 0l0 -39.5625zm14.345215 0l3.78125 0l0 39.5625l-3.78125 0l0 -39.5625z" fill-rule="nonzero"/><path fill="#000000" fill-opacity="0.0" d="m533.74805 412.0656l364.37793 0l0 53.13385l-364.37793 0z" fill-rule="evenodd"/><path fill="#ffffff" d="m554.4668 437.70563l-1.296875 0q-0.21875 0 -0.359375 -0.109375q-0.140625 -0.109375 -0.21875 -0.296875l-1.15625 -2.984375l-5.5625 0l-1.171875 2.984375q-0.0625 0.15625 -0.203125 0.28125q-0.140625 0.125 -0.359375 0.125l-1.296875 0l4.953125 -12.421875l1.71875 0l4.953125 12.421875zm-8.125 -4.609375l4.625 0l-1.953125 -5.046875q-0.1875 -0.46875 -0.359375 -1.171875q-0.09375 0.359375 -0.1875 0.65625q-0.09375 0.296875 -0.1875 0.515625l-1.9375 5.046875zm9.455078 4.609375l0 -8.78125l0.921875 0q0.328125 0 0.40625 0.328125l0.125 0.953125q0.578125 -0.640625 1.28125 -1.03125q0.703125 -0.390625 1.625 -0.390625q0.71875 0 1.265625 0.25q0.5625 0.234375 0.921875 0.671875q0.375 0.4375 0.5625 1.0625q0.1875 0.609375 0.1875 1.34375l0 5.59375l-1.53125 0l0 -5.59375q0 -0.984375 -0.46875 -1.53125q-0.453125 -0.5625 -1.375 -0.5625q-0.6875 0 -1.28125 0.328125q-0.59375 0.328125 -1.09375 0.890625l0 6.46875l-1.546875 0zm15.8063965 0q-0.328125 0 -0.40625 -0.328125l-0.140625 -1.0625q-0.5625 0.6875 -1.296875 1.109375q-0.71875 0.40625 -1.65625 0.40625q-0.75 0 -1.375 -0.28125q-0.609375 -0.296875 -1.046875 -0.859375q-0.421875 -0.5625 -0.65625 -1.40625q-0.234375 -0.84375 -0.234375 -1.9375q0 -0.96875 0.25 -1.796875q0.265625 -0.84375 0.75 -1.453125q0.5 -0.625 1.203125 -0.96875q0.703125 -0.359375 1.59375 -0.359375q0.796875 0 1.375 0.28125q0.578125 0.265625 1.015625 0.765625l0 -4.875l1.546875 0l0 12.765625l-0.921875 0zm-2.984375 -1.125q0.75 0 1.3125 -0.34375q0.578125 -0.34375 1.046875 -0.984375l0 -4.25q-0.421875 -0.5625 -0.9375 -0.796875q-0.5 -0.234375 -1.109375 -0.234375q-1.234375 0 -1.890625 0.875q-0.65625 0.875 -0.65625 2.5q0 0.859375 0.140625 1.46875q0.15625 0.609375 0.4375 1.015625q0.28125 0.390625 0.703125 0.578125q0.421875 0.171875 0.953125 0.171875zm6.4989624 1.125l0 -8.78125l0.890625 0q0.25 0 0.34375 0.09375q0.09375 0.09375 0.125 0.328125l0.109375 1.375q0.453125 -0.921875 1.109375 -1.4375q0.65625 -0.515625 1.546875 -0.515625q0.375 0 0.65625 0.09375q0.296875 0.078125 0.5625 0.21875l-0.203125 1.15625q-0.0625 0.21875 -0.265625 0.21875q-0.125 0 -0.375 -0.078125q-0.25 -0.09375 -0.703125 -0.09375q-0.8125 0 -1.359375 0.46875q-0.53125 0.46875 -0.890625 1.359375l0 5.59375l-1.546875 0zm10.452087 -8.921875q0.796875 0 1.453125 0.265625q0.671875 0.265625 1.15625 0.765625q0.484375 0.5 0.75 1.234375q0.28125 0.734375 0.28125 1.671875q0 0.359375 -0.078125 0.484375q-0.078125 0.109375 -0.296875 0.109375l-5.828125 0q0.015625 0.84375 0.21875 1.453125q0.203125 0.609375 0.5625 1.03125q0.375 0.40625 0.875 0.609375q0.5 0.203125 1.125 0.203125q0.578125 0 1.0 -0.125q0.421875 -0.140625 0.71875 -0.296875q0.3125 -0.15625 0.515625 -0.28125q0.203125 -0.140625 0.34375 -0.140625q0.203125 0 0.296875 0.140625l0.4375 0.5625q-0.28125 0.34375 -0.6875 0.609375q-0.390625 0.25 -0.859375 0.421875q-0.453125 0.15625 -0.9375 0.234375q-0.484375 0.09375 -0.953125 0.09375q-0.90625 0 -1.6875 -0.3125q-0.765625 -0.3125 -1.328125 -0.90625q-0.546875 -0.59375 -0.859375 -1.46875q-0.3125 -0.875 -0.3125 -2.0q0 -0.921875 0.28125 -1.71875q0.28125 -0.796875 0.8125 -1.375q0.53125 -0.59375 1.28125 -0.921875q0.765625 -0.34375 1.71875 -0.34375zm0.046875 1.140625q-1.125 0 -1.765625 0.65625q-0.640625 0.640625 -0.796875 1.78125l4.765625 0q0 -0.546875 -0.140625 -0.984375q-0.140625 -0.453125 -0.4375 -0.765625q-0.28125 -0.328125 -0.703125 -0.5q-0.40625 -0.1875 -0.921875 -0.1875zm4.423767 -1.0l1.203125 0q0.203125 0 0.3125 0.09375q0.125 0.09375 0.171875 0.234375l1.671875 5.640625q0.078125 0.3125 0.140625 0.609375q0.0625 0.28125 0.09375 0.578125q0.078125 -0.296875 0.15625 -0.578125q0.09375 -0.296875 0.1875 -0.609375l1.859375 -5.671875q0.03125 -0.140625 0.140625 -0.21875q0.109375 -0.09375 0.28125 -0.09375l0.671875 0q0.171875 0 0.28125 0.09375q0.109375 0.078125 0.15625 0.21875l1.8125 5.671875q0.09375 0.3125 0.15625 0.609375q0.078125 0.28125 0.15625 0.578125q0.03125 -0.296875 0.09375 -0.59375q0.078125 -0.3125 0.15625 -0.59375l1.71875 -5.640625q0.046875 -0.140625 0.15625 -0.234375q0.125 -0.09375 0.296875 -0.09375l1.15625 0l-2.84375 8.78125l-1.21875 0q-0.21875 0 -0.3125 -0.296875l-1.9375 -5.953125q-0.0625 -0.203125 -0.109375 -0.40625q-0.046875 -0.203125 -0.09375 -0.390625q-0.03125 0.1875 -0.078125 0.40625q-0.046875 0.203125 -0.109375 0.40625l-1.96875 5.9375q-0.09375 0.296875 -0.359375 0.296875l-1.15625 0l-2.84375 -8.78125zm19.680298 7.375l5.375 0l0 1.40625l-7.0625 0l0 -12.421875l1.6875 0l0 11.015625zm8.312988 -7.375l0 5.59375q0 1.0 0.453125 1.546875q0.46875 0.546875 1.390625 0.546875q0.6875 0 1.28125 -0.3125q0.59375 -0.328125 1.09375 -0.890625l0 -6.484375l1.546875 0l0 8.78125l-0.921875 0q-0.328125 0 -0.40625 -0.328125l-0.125 -0.9375q-0.578125 0.640625 -1.296875 1.03125q-0.703125 0.375 -1.609375 0.375q-0.71875 0 -1.28125 -0.234375q-0.546875 -0.25 -0.921875 -0.671875q-0.375 -0.4375 -0.5625 -1.046875q-0.171875 -0.625 -0.171875 -1.375l0 -5.59375l1.53125 0z" fill-rule="nonzero"/></g></svg>